<svg id="Logo" xmlns="http://www.w3.org/2000/svg" width="309.149" height="51.463" viewBox="0 0 309.149 51.463">
  <path id="Path_21" data-name="Path 21" d="M24.274,0V-1.06a9.358,9.358,0,0,0,2.544-.424,1.842,1.842,0,0,0,1.139-1.272,10.479,10.479,0,0,0,.292-2.862V-31.906a10.437,10.437,0,0,0-.292-2.888,1.91,1.91,0,0,0-1.166-1.272,7.862,7.862,0,0,0-2.517-.4v-1.06q1.431.053,3.737.106t4.584.053q2.438,0,4.584-.053t3.472-.106v1.06a8.054,8.054,0,0,0-2.57.4,1.835,1.835,0,0,0-1.139,1.272,11.436,11.436,0,0,0-.265,2.888V-5.618a10.479,10.479,0,0,0,.292,2.862,1.842,1.842,0,0,0,1.139,1.272,9.358,9.358,0,0,0,2.544.424V0Q39.326-.106,37.18-.132T32.6-.159q-2.279,0-4.584.027T24.274,0ZM1.8,0V-1.06a9.358,9.358,0,0,0,2.544-.424A1.842,1.842,0,0,0,5.485-2.756a10.479,10.479,0,0,0,.292-2.862V-31.906a10.437,10.437,0,0,0-.292-2.888,1.91,1.91,0,0,0-1.166-1.272,7.862,7.862,0,0,0-2.517-.4v-1.06q1.378.053,3.577.106t4.8.053q2.226,0,4.4-.053t3.6-.106v1.06a8.054,8.054,0,0,0-2.57.4,1.835,1.835,0,0,0-1.139,1.272,11.436,11.436,0,0,0-.265,2.888V-5.618A10.479,10.479,0,0,0,14.5-2.756a1.842,1.842,0,0,0,1.139,1.272,9.358,9.358,0,0,0,2.544.424V0q-1.431-.106-3.6-.132t-4.4-.027q-2.6,0-4.8.027T1.8,0Zm8.957-18.338V-19.4H31.694v1.06Zm45.58-9.805a9.669,9.669,0,0,1,7.314,2.756q2.65,2.756,2.65,9.01H48.866l-.106-1.007H59.625a25.73,25.73,0,0,0-.318-4.8A10.172,10.172,0,0,0,58.141-25.7a2.4,2.4,0,0,0-2.12-1.325q-1.855,0-3.153,2.332T51.3-16.96l.159.318q-.053.636-.079,1.325t-.027,1.431A14.49,14.49,0,0,0,52.391-7.95a7.493,7.493,0,0,0,2.623,3.313A5.874,5.874,0,0,0,58.247-3.6,8.986,8.986,0,0,0,61.719-4.4a8.219,8.219,0,0,0,3.524-3.445l.954.318A13.8,13.8,0,0,1,64.183-3.6a11.043,11.043,0,0,1-3.5,3.127A10.044,10.044,0,0,1,55.6.742a12.839,12.839,0,0,1-6.36-1.537,10.57,10.57,0,0,1-4.319-4.664,17.745,17.745,0,0,1-1.564-7.95,18.041,18.041,0,0,1,1.67-8.215,11.191,11.191,0,0,1,4.611-4.9A13.69,13.69,0,0,1,56.339-28.143ZM80.189-41.5v36.57a4.411,4.411,0,0,0,.769,3.021,3.556,3.556,0,0,0,2.623.795V0Q82.574-.053,80.56-.132t-4.081-.08q-2.067,0-4.16.08T69.165,0V-1.113a3.556,3.556,0,0,0,2.624-.795,4.411,4.411,0,0,0,.769-3.021v-30.21a6.785,6.785,0,0,0-.715-3.524A2.911,2.911,0,0,0,69.165-39.8v-1.113q1.7.159,3.286.159,2.173,0,4.134-.185A28.664,28.664,0,0,0,80.189-41.5Zm16.8,0v36.57a4.411,4.411,0,0,0,.769,3.021,3.556,3.556,0,0,0,2.623.795V0q-1.007-.053-3.021-.132T93.28-.212q-2.067,0-4.16.08T85.966,0V-1.113a3.556,3.556,0,0,0,2.624-.795,4.411,4.411,0,0,0,.769-3.021v-30.21a6.785,6.785,0,0,0-.715-3.524A2.911,2.911,0,0,0,85.966-39.8v-1.113q1.7.159,3.286.159,2.173,0,4.134-.185A28.664,28.664,0,0,0,96.99-41.5Zm18.815,13.356a15.218,15.218,0,0,1,6.784,1.431,10.108,10.108,0,0,1,4.558,4.611,18.426,18.426,0,0,1,1.643,8.427,18.256,18.256,0,0,1-1.643,8.4,10.132,10.132,0,0,1-4.558,4.584A15.218,15.218,0,0,1,115.805.742a15.135,15.135,0,0,1-6.7-1.431,10.239,10.239,0,0,1-4.611-4.584,18.009,18.009,0,0,1-1.67-8.4,18.176,18.176,0,0,1,1.67-8.427,10.214,10.214,0,0,1,4.611-4.611A15.135,15.135,0,0,1,115.805-28.143Zm0,1.06q-2.12,0-3.551,3.153t-1.431,10.256q0,7.1,1.431,10.229t3.551,3.127q2.173,0,3.577-3.127t1.4-10.229q0-7.1-1.4-10.256T115.805-27.083Zm29.15-10.441q1.325.053,3.577.106t4.479.053q2.544,0,4.929-.053t3.392-.053q6.572,0,9.831,2.332a7.081,7.081,0,0,1,3.26,5.989,7.433,7.433,0,0,1-1.113,3.763,10.208,10.208,0,0,1-3.445,3.392,17.019,17.019,0,0,1-6.042,2.173v.106a21.9,21.9,0,0,1,7.9,1.8,9.96,9.96,0,0,1,4.187,3.445,7.732,7.732,0,0,1,1.272,4.187,8.668,8.668,0,0,1-3.9,7.632Q169.388,0,162.551,0q-1.272,0-3.684-.079t-5.75-.079q-2.332,0-4.585.027T144.955,0V-1.06a9.358,9.358,0,0,0,2.544-.424,1.842,1.842,0,0,0,1.14-1.272,10.48,10.48,0,0,0,.291-2.862V-31.906a10.437,10.437,0,0,0-.291-2.888,1.91,1.91,0,0,0-1.166-1.272,7.862,7.862,0,0,0-2.518-.4Zm15.688,1.06q-2.067,0-2.676.9a7.3,7.3,0,0,0-.61,3.657V-5.618q0,2.756.689,3.578t2.968.821q3.816,0,5.591-2.411t1.775-6.863a9,9,0,0,0-2.04-6.307q-2.041-2.226-6.757-2.226h-4.505v-.9h4.558a5.519,5.519,0,0,0,3.816-1.193,6.36,6.36,0,0,0,1.855-3.18,16.507,16.507,0,0,0,.53-4.267,11.479,11.479,0,0,0-1.219-5.91A4.3,4.3,0,0,0,160.643-36.464Zm44.52,9.063v1.06a4.016,4.016,0,0,0-1.908,1.245,10.186,10.186,0,0,0-1.749,3.313L194.033-.795l-1.961,3.71L180.518-23.32a5.094,5.094,0,0,0-1.776-2.518,3.42,3.42,0,0,0-1.51-.45V-27.4q1.749.159,3.631.239t3.63.08q2.173,0,3.975-.106t3.392-.212v1.113a14.072,14.072,0,0,0-1.988.132,1.614,1.614,0,0,0-1.272.742q-.344.61.292,2.094L195.57-7.208l-.477.318,3.922-10.971q1.484-4.293.477-6.281a4.046,4.046,0,0,0-3.551-2.2V-27.4q1.219.053,2.65.106t2.491.053q1.06,0,2.226-.053T205.163-27.4ZM194.033-.795l-2.014,5.671a8.609,8.609,0,0,1-2.332,3.763,5.119,5.119,0,0,1-1.908.981,9.567,9.567,0,0,1-2.7.344,8.744,8.744,0,0,1-2.624-.424A5.157,5.157,0,0,1,180.2,8.162a3.408,3.408,0,0,1-.9-2.438A3.253,3.253,0,0,1,180.465,3.1a5.282,5.282,0,0,1,5.936-.132,2.938,2.938,0,0,1,1.113,2.491,3.474,3.474,0,0,1-.662,2.014A3.96,3.96,0,0,1,184.864,8.9a3.292,3.292,0,0,0,.636.053h.583a4.283,4.283,0,0,0,2.809-1.007,7.266,7.266,0,0,0,2.014-3.18l1.855-5.459Zm21.995-40.7v36.57a4.411,4.411,0,0,0,.768,3.021,3.556,3.556,0,0,0,2.624.795V0q-1.007-.053-3.021-.132t-4.081-.08q-2.067,0-4.16.08T205,0V-1.113a3.556,3.556,0,0,0,2.624-.795,4.411,4.411,0,0,0,.768-3.021v-30.21a6.785,6.785,0,0,0-.715-3.524A2.912,2.912,0,0,0,205-39.8v-1.113q1.7.159,3.286.159,2.173,0,4.134-.185A28.664,28.664,0,0,0,216.028-41.5ZM228.7.371q-3.551,0-5.141-1.855a6.687,6.687,0,0,1-1.59-4.5A6.188,6.188,0,0,1,223-9.7a8.246,8.246,0,0,1,2.676-2.358,19.743,19.743,0,0,1,3.472-1.537q1.828-.609,3.5-1.219a10.128,10.128,0,0,0,2.7-1.4,2.44,2.44,0,0,0,1.034-2.014v-4.134a6.384,6.384,0,0,0-.451-2.465,3.489,3.489,0,0,0-1.378-1.67,4.472,4.472,0,0,0-2.411-.583,7.964,7.964,0,0,0-2.12.291,3.868,3.868,0,0,0-1.749.981,4.839,4.839,0,0,1,2.306,1.616,3.981,3.981,0,0,1,.821,2.465,3.564,3.564,0,0,1-1.245,2.862,4.394,4.394,0,0,1-2.941,1.06A3.523,3.523,0,0,1,224.322-19a4.4,4.4,0,0,1-.98-2.889,4.073,4.073,0,0,1,.769-2.544,8.541,8.541,0,0,1,2.146-1.908,13.031,13.031,0,0,1,3.577-1.325,20.38,20.38,0,0,1,4.531-.477,17.709,17.709,0,0,1,4.4.5,7.01,7.01,0,0,1,3.286,1.829,5.816,5.816,0,0,1,1.59,2.994,22.458,22.458,0,0,1,.371,4.479V-3.922a4.367,4.367,0,0,0,.265,1.8.927.927,0,0,0,.9.53,2.043,2.043,0,0,0,1.007-.265,5.2,5.2,0,0,0,.9-.636l.53.9a7.84,7.84,0,0,1-2.57,1.457,9.939,9.939,0,0,1-3.26.5q-3.18,0-4.213-1.3a4.931,4.931,0,0,1-1.087-2.994,8.782,8.782,0,0,1-3.26,3.233A9.285,9.285,0,0,1,228.7.371Zm4.081-3.392a3.868,3.868,0,0,0,1.882-.477,5.351,5.351,0,0,0,1.723-1.7V-16.059a5.33,5.33,0,0,1-1.775,1.776q-1.14.715-2.332,1.537a7.036,7.036,0,0,0-1.988,2.094,6.342,6.342,0,0,0-.795,3.392A4.578,4.578,0,0,0,230.444-4,3.129,3.129,0,0,0,232.776-3.021ZM261.4-27.4v1.113a13.788,13.788,0,0,0-2.04.132,1.4,1.4,0,0,0-1.166.768,3.063,3.063,0,0,0,.186,2.067L263.41-7.579l-.689.742,6.2-20.617,1.06.477L261.873.106q-.848-.053-1.7-.053t-1.749.053L250.054-23.32q-.742-2.12-1.617-2.544a3.518,3.518,0,0,0-1.458-.424V-27.4q1.7.159,3.525.239t4,.08q1.643,0,3.472-.106T261.4-27.4Zm27.666,0v1.06a4.084,4.084,0,0,0-1.908,1.219,9.288,9.288,0,0,0-1.7,3.339L278.409.106q-.848-.053-1.723-.053t-1.723.053l-7.473-20.4,1.431-7.155q.954.053,1.935.027t1.934-.027l7.261,21.412-.583-.583,3.551-11.236q1.378-4.346.292-6.307a4.342,4.342,0,0,0-3.736-2.173V-27.4q.848.053,1.828.08l1.961.053q.98.027,1.669.027,1.06,0,2.2-.053T289.062-27.4Zm11.13-.742a12.332,12.332,0,0,1,3.9.557A9.592,9.592,0,0,1,306.5-26.5q1.8,1.219,2.226-1.59h1.113q-.106,1.484-.159,3.63t-.053,5.7h-1.113a16.884,16.884,0,0,0-1.007-3.869,7.8,7.8,0,0,0-2.146-3.127,5.339,5.339,0,0,0-3.63-1.219,3.946,3.946,0,0,0-2.6.874,3.077,3.077,0,0,0-1.06,2.518,4.323,4.323,0,0,0,.954,2.782,12.39,12.39,0,0,0,2.465,2.279q1.51,1.086,3.153,2.306a31.639,31.639,0,0,1,4.479,3.949A7.332,7.332,0,0,1,310.951-7.1a6.59,6.59,0,0,1-1.378,4.161,8.869,8.869,0,0,1-3.63,2.729,12.719,12.719,0,0,1-5.009.954A11.5,11.5,0,0,1,298.1.424a9.748,9.748,0,0,1-2.147-.8q-.689-.318-1.3-.609t-1.139-.5a.808.808,0,0,0-.928.371,3.872,3.872,0,0,0-.609,1.484h-1.113q.106-1.7.159-4.134t.053-6.466h1.113a20.31,20.31,0,0,0,1.166,5.062,8.39,8.39,0,0,0,2.306,3.445,5.471,5.471,0,0,0,3.684,1.245,4.15,4.15,0,0,0,2.544-.875,3.378,3.378,0,0,0,1.166-2.888,5.3,5.3,0,0,0-1.51-3.869,38.052,38.052,0,0,0-3.842-3.339q-1.7-1.378-3.206-2.73a12.526,12.526,0,0,1-2.465-2.968,7.109,7.109,0,0,1-.954-3.684,6.382,6.382,0,0,1,1.272-4.028,7.718,7.718,0,0,1,3.366-2.465A12.15,12.15,0,0,1,300.192-28.143Z" transform="translate(-1.802 41.499)" fill="#0e4c73"/>
</svg>
